<svg xmlns="http://www.w3.org/2000/svg" xmlns:xlink="http://www.w3.org/1999/xlink" width="500" zoomAndPan="magnify" viewBox="0 0 375 374.999991" height="500" preserveAspectRatio="xMidYMid meet" version="1.0"><defs><g/><clipPath id="220c613d8b"><rect x="0" width="188" y="0" height="204"/></clipPath><clipPath id="bc4d92b344"><rect x="0" width="187" y="0" height="204"/></clipPath></defs><rect x="-37.5" width="450" fill="#ffffff" y="-37.499999" height="449.999989" fill-opacity="1"/><rect x="-37.5" width="450" fill="#ebebeb" y="-37.499999" height="449.999989" fill-opacity="1"/><g transform="matrix(1, 0, 0, 1, 148, 98)"><g clip-path="url(#220c613d8b)"><g fill="#ebebeb" fill-opacity="1"><g transform="translate(2.996616, 162.454576)"><g><path d="M 181.214844 -57.914062 C 181.214844 -54.644531 181.179688 -50.664062 181.113281 -45.976562 C 181.046875 -41.347656 181.011719 -36.519531 181.011719 -31.488281 C 181.011719 -26.394531 180.976562 -21.601562 180.910156 -17.113281 C 180.84375 -12.691406 180.808594 -8.980469 180.808594 -5.972656 L 180.808594 -0.609375 C 180.808594 0.898438 180.414062 2.242188 179.625 3.429688 C 178.957031 4.429688 178.085938 5.199219 177.011719 5.734375 C 176.054688 6.214844 175.03125 6.453125 173.949219 6.453125 L 95.582031 6.453125 C 93.664062 6.453125 92.042969 5.789062 90.714844 4.464844 C 89.386719 3.136719 88.722656 1.511719 88.722656 -0.40625 L 95.175781 -0.40625 L 89.21875 2.078125 C 88.511719 0.386719 87.84375 -1.304688 87.207031 -3 C 86.679688 -4.40625 86.0625 -5.820312 85.351562 -7.238281 L 85.28125 -7.378906 L 85.21875 -7.527344 C 83.5625 -11.285156 82.183594 -15.628906 81.082031 -20.5625 C 80.253906 -24.253906 79.140625 -27.101562 77.738281 -29.105469 C 78.203125 -28.4375 78.914062 -27.992188 79.867188 -27.765625 C 80.667969 -27.574219 81.332031 -27.605469 81.867188 -27.847656 C 82.0625 -27.9375 82.265625 -28.128906 82.488281 -28.425781 C 82.78125 -28.820312 82.945312 -29.222656 82.976562 -29.636719 C 82.730469 -25.644531 82.734375 -21 82.992188 -15.703125 C 83.265625 -10.132812 83.46875 -5.167969 83.605469 -0.808594 L 83.609375 -0.707031 L 83.609375 -0.609375 C 83.609375 1.378906 82.925781 3.050781 81.566406 4.414062 C 80.203125 5.773438 78.53125 6.453125 76.546875 6.453125 L 5.871094 6.453125 C 3.886719 6.453125 2.214844 5.773438 0.851562 4.414062 C -0.507812 3.050781 -1.191406 1.378906 -1.191406 -0.609375 C -1.191406 -11.742188 -1.019531 -22.910156 -0.679688 -34.113281 C -0.34375 -45.1875 -0.175781 -56.226562 -0.175781 -67.230469 C -0.175781 -76.859375 -0.0742188 -86.722656 0.128906 -96.824219 C 0.324219 -106.636719 0.03125 -115.742188 -0.757812 -124.140625 L -0.785156 -124.441406 L -0.785156 -126.765625 C -0.785156 -128.273438 -0.390625 -129.617188 0.402344 -130.800781 C 1.066406 -131.804688 1.9375 -132.574219 3.011719 -133.109375 C 3.96875 -133.589844 4.992188 -133.828125 6.074219 -133.828125 L 82.417969 -133.828125 C 84.335938 -133.828125 85.957031 -133.164062 87.285156 -131.835938 C 88.613281 -130.507812 89.277344 -128.886719 89.277344 -126.96875 L 82.824219 -126.96875 L 88.742188 -129.542969 C 90.238281 -126.105469 91.570312 -122.015625 92.734375 -117.273438 C 93.800781 -112.945312 94.933594 -108.617188 96.132812 -104.289062 C 97.234375 -100.304688 98.4375 -97.015625 99.734375 -94.417969 L 93.960938 -91.53125 L 99.496094 -94.851562 C 99.140625 -95.449219 98.707031 -95.84375 98.203125 -96.035156 C 97.640625 -96.253906 97.03125 -96.253906 96.375 -96.035156 L 96.609375 -96.113281 L 96.851562 -96.171875 C 96.136719 -95.996094 95.539062 -95.570312 95.058594 -94.90625 C 94.773438 -94.511719 94.621094 -94.207031 94.609375 -93.984375 L 94.625 -94.226562 L 94.660156 -94.46875 C 95.027344 -97.035156 95.242188 -100.210938 95.304688 -103.992188 C 95.371094 -107.972656 95.371094 -112.019531 95.304688 -116.132812 C 95.234375 -120.351562 95.203125 -123.898438 95.203125 -126.765625 C 95.203125 -128.75 95.882812 -130.425781 97.242188 -131.785156 C 98.605469 -133.148438 100.277344 -133.828125 102.265625 -133.828125 L 174.558594 -133.828125 C 176.542969 -133.828125 178.214844 -133.148438 179.578125 -131.785156 C 180.9375 -130.425781 181.621094 -128.75 181.621094 -126.765625 L 181.621094 -126.363281 C 181.621094 -114.859375 181.550781 -103.394531 181.417969 -91.960938 C 181.28125 -80.578125 181.214844 -69.230469 181.214844 -57.914062 Z M 168.304688 -57.914062 C 168.304688 -69.28125 168.371094 -80.679688 168.507812 -92.113281 C 168.644531 -103.496094 168.710938 -114.910156 168.710938 -126.363281 L 168.710938 -126.765625 C 168.710938 -125.1875 169.289062 -123.816406 170.449219 -122.65625 C 171.609375 -121.5 172.976562 -120.917969 174.558594 -120.917969 L 102.265625 -120.917969 C 103.84375 -120.917969 105.214844 -121.5 106.371094 -122.65625 C 107.53125 -123.816406 108.109375 -125.1875 108.109375 -126.765625 C 108.109375 -123.964844 108.144531 -120.492188 108.210938 -116.339844 C 108.28125 -112.085938 108.28125 -107.898438 108.210938 -103.777344 C 108.140625 -99.457031 107.882812 -95.746094 107.4375 -92.644531 L 101.046875 -93.554688 L 107.488281 -93.125 C 107.339844 -90.882812 106.683594 -88.957031 105.523438 -87.347656 C 104.164062 -85.464844 102.316406 -84.234375 99.980469 -83.648438 L 98.417969 -89.910156 L 100.457031 -83.789062 C 98.183594 -83.03125 95.886719 -83.097656 93.566406 -83.988281 C 91.308594 -84.855469 89.59375 -86.265625 88.425781 -88.210938 L 88.296875 -88.421875 L 88.1875 -88.644531 C 86.515625 -91.988281 85.015625 -96.054688 83.691406 -100.84375 C 82.457031 -105.292969 81.296875 -109.738281 80.199219 -114.1875 C 79.207031 -118.222656 78.109375 -121.625 76.902344 -124.394531 L 76.367188 -125.625 L 76.367188 -126.96875 C 76.367188 -125.320312 76.964844 -123.902344 78.15625 -122.707031 C 79.351562 -121.515625 80.769531 -120.917969 82.417969 -120.917969 L 6.074219 -120.917969 C 7.023438 -120.917969 7.925781 -121.132812 8.785156 -121.5625 C 9.757812 -122.046875 10.542969 -122.742188 11.140625 -123.640625 C 11.796875 -124.625 12.125 -125.667969 12.125 -126.765625 L 12.125 -124.742188 L 5.671875 -124.742188 L 12.097656 -125.34375 C 12.929688 -116.460938 13.242188 -106.867188 13.035156 -96.566406 C 12.832031 -86.550781 12.730469 -76.773438 12.730469 -67.230469 C 12.730469 -56.09375 12.5625 -44.925781 12.222656 -33.722656 C 11.886719 -22.652344 11.71875 -11.613281 11.71875 -0.609375 C 11.71875 -2.1875 11.140625 -3.558594 9.980469 -4.714844 C 8.820312 -5.875 7.453125 -6.453125 5.871094 -6.453125 L 76.546875 -6.453125 C 74.964844 -6.453125 73.597656 -5.875 72.4375 -4.714844 C 71.277344 -3.558594 70.699219 -2.1875 70.699219 -0.609375 L 77.152344 -0.609375 L 70.703125 -0.40625 C 70.566406 -4.6875 70.367188 -9.578125 70.097656 -15.074219 C 69.816406 -20.851562 69.820312 -26.0625 70.113281 -30.707031 C 70.28125 -32.742188 70.953125 -34.546875 72.125 -36.121094 C 73.222656 -37.597656 74.675781 -38.753906 76.488281 -39.585938 C 78.644531 -40.570312 80.761719 -40.820312 82.84375 -40.328125 C 85.078125 -39.796875 86.902344 -38.523438 88.3125 -36.507812 C 90.691406 -33.109375 92.480469 -28.734375 93.679688 -23.382812 C 94.601562 -19.269531 95.71875 -15.714844 97.035156 -12.726562 L 91.125 -10.125 L 96.898438 -13.011719 C 97.808594 -11.191406 98.609375 -9.363281 99.296875 -7.53125 C 99.875 -5.984375 100.488281 -4.4375 101.132812 -2.886719 L 101.632812 -1.695312 L 101.632812 -0.40625 C 101.632812 -2.050781 101.035156 -3.472656 99.839844 -4.664062 C 98.648438 -5.859375 97.230469 -6.453125 95.582031 -6.453125 L 173.949219 -6.453125 C 173 -6.453125 172.097656 -6.242188 171.242188 -5.8125 C 170.269531 -5.324219 169.484375 -4.632812 168.882812 -3.730469 C 168.226562 -2.75 167.898438 -1.707031 167.898438 -0.609375 L 167.898438 -5.972656 C 167.898438 -9.042969 167.933594 -12.824219 168 -17.308594 C 168.070312 -21.734375 168.101562 -26.460938 168.101562 -31.488281 C 168.101562 -36.582031 168.136719 -41.472656 168.203125 -46.164062 C 168.269531 -50.789062 168.304688 -54.707031 168.304688 -57.914062 Z M 168.304688 -57.914062 "/></g></g></g><g fill="#000000" fill-opacity="1"><g transform="translate(2.996616, 162.454576)"><g><path d="M 174.75 -57.921875 C 174.75 -54.679688 174.71875 -50.726562 174.65625 -46.0625 C 174.59375 -41.40625 174.5625 -36.546875 174.5625 -31.484375 C 174.5625 -26.421875 174.523438 -21.660156 174.453125 -17.203125 C 174.390625 -12.753906 174.359375 -9.007812 174.359375 -5.96875 C 174.359375 -2.9375 174.359375 -1.148438 174.359375 -0.609375 C 174.359375 -0.203125 174.222656 0 173.953125 0 L 95.578125 0 C 95.304688 0 95.171875 -0.132812 95.171875 -0.40625 C 94.492188 -2.019531 93.851562 -3.632812 93.25 -5.25 C 92.644531 -6.875 91.9375 -8.5 91.125 -10.125 C 89.632812 -13.5 88.382812 -17.445312 87.375 -21.96875 C 86.363281 -26.488281 84.914062 -30.101562 83.03125 -32.8125 C 82.082031 -34.15625 80.796875 -34.457031 79.171875 -33.71875 C 77.554688 -32.976562 76.679688 -31.796875 76.546875 -30.171875 C 76.273438 -25.847656 76.273438 -20.921875 76.546875 -15.390625 C 76.816406 -9.859375 77.019531 -4.929688 77.15625 -0.609375 C 77.15625 -0.203125 76.953125 0 76.546875 0 L 5.875 0 C 5.46875 0 5.265625 -0.203125 5.265625 -0.609375 C 5.265625 -11.679688 5.429688 -22.785156 5.765625 -33.921875 C 6.109375 -45.054688 6.28125 -56.160156 6.28125 -67.234375 C 6.28125 -76.816406 6.378906 -86.632812 6.578125 -96.6875 C 6.785156 -106.75 6.484375 -116.097656 5.671875 -124.734375 L 5.671875 -126.765625 C 5.671875 -127.171875 5.804688 -127.375 6.078125 -127.375 L 82.421875 -127.375 C 82.691406 -127.375 82.828125 -127.238281 82.828125 -126.96875 C 84.171875 -123.863281 85.382812 -120.113281 86.46875 -115.71875 C 87.550781 -111.332031 88.695312 -106.945312 89.90625 -102.5625 C 91.125 -98.175781 92.472656 -94.5 93.953125 -91.53125 C 94.359375 -90.851562 95 -90.34375 95.875 -90 C 96.757812 -89.664062 97.609375 -89.632812 98.421875 -89.90625 C 100.035156 -90.3125 100.910156 -91.53125 101.046875 -93.5625 C 101.453125 -96.394531 101.6875 -99.832031 101.75 -103.875 C 101.820312 -107.925781 101.820312 -112.046875 101.75 -116.234375 C 101.6875 -120.421875 101.65625 -123.929688 101.65625 -126.765625 C 101.65625 -127.171875 101.859375 -127.375 102.265625 -127.375 L 174.5625 -127.375 C 174.957031 -127.375 175.15625 -127.171875 175.15625 -126.765625 C 175.15625 -126.628906 175.15625 -126.492188 175.15625 -126.359375 C 175.15625 -114.878906 175.085938 -103.4375 174.953125 -92.03125 C 174.816406 -80.625 174.75 -69.253906 174.75 -57.921875 Z M 174.75 -57.921875 "/></g></g></g></g></g><g transform="matrix(1, 0, 0, 1, 41, 98)"><g clip-path="url(#bc4d92b344)"><g fill="#ebebeb" fill-opacity="1"><g transform="translate(3.94989, 162.454576)"><g><path d="M 97.605469 -133.828125 L 171.519531 -133.828125 C 173.992188 -133.828125 175.941406 -132.9375 177.371094 -131.152344 C 178.378906 -129.890625 178.886719 -128.441406 178.886719 -126.804688 C 178.886719 -125.847656 178.699219 -124.902344 178.324219 -123.964844 L 178.222656 -123.714844 L 178.101562 -123.476562 C 177.738281 -122.746094 176.699219 -120.464844 174.980469 -116.632812 C 173.1875 -112.636719 170.988281 -108.03125 168.382812 -102.820312 C 165.738281 -97.535156 163.023438 -92.585938 160.230469 -87.984375 C 157.179688 -82.992188 154.097656 -78.277344 150.980469 -73.847656 C 147.910156 -69.480469 145.277344 -65.820312 143.082031 -62.871094 C 141.148438 -60.273438 140.066406 -58.738281 139.828125 -58.269531 L 139.757812 -58.128906 L 139.683594 -57.992188 C 138.644531 -56.144531 137.746094 -54.171875 136.988281 -52.078125 C 136.195312 -49.882812 135.558594 -47.757812 135.074219 -45.703125 L 135.039062 -45.554688 L 135 -45.410156 C 134.851562 -44.902344 134.695312 -43.386719 134.523438 -40.871094 C 134.324219 -37.9375 134.121094 -34.5 133.921875 -30.554688 C 133.722656 -26.644531 133.589844 -22.667969 133.523438 -18.625 L 133.320312 -7.578125 C 133.257812 -4.585938 133.28125 -2.542969 133.390625 -1.453125 L 133.425781 -1.132812 L 133.425781 -0.808594 C 133.425781 1.242188 132.726562 2.964844 131.332031 4.363281 C 129.933594 5.757812 128.210938 6.453125 126.160156 6.453125 L 48.601562 6.453125 C 46.546875 6.453125 44.824219 5.757812 43.429688 4.363281 C 42.035156 2.964844 41.335938 1.242188 41.335938 -0.808594 L 41.335938 -1.34375 L 41.421875 -1.871094 C 41.5 -2.328125 41.539062 -2.785156 41.539062 -3.238281 L 41.539062 -5.671875 C 41.539062 -8.554688 41.574219 -11.441406 41.640625 -14.328125 C 41.707031 -17.113281 41.742188 -19.964844 41.742188 -22.882812 C 41.742188 -30.265625 41.214844 -36.472656 40.15625 -41.503906 C 39.113281 -46.484375 37.953125 -50.332031 36.679688 -53.054688 C 35.398438 -55.789062 34.433594 -57.574219 33.785156 -58.40625 L 33.640625 -58.59375 L 33.511719 -58.789062 C 30.777344 -62.890625 28.144531 -66.957031 25.617188 -70.992188 C 23.105469 -74.992188 20.5625 -79.09375 17.988281 -83.296875 C 16.949219 -85.078125 15.460938 -87.792969 13.53125 -91.453125 C 11.605469 -95.097656 9.578125 -99.113281 7.453125 -103.5 C 5.347656 -107.855469 3.441406 -111.871094 1.738281 -115.550781 C -0.0117188 -119.324219 -1.25 -122.15625 -1.972656 -124.042969 C -2.328125 -124.929688 -2.507812 -125.847656 -2.507812 -126.804688 C -2.507812 -128.441406 -2 -129.890625 -0.992188 -131.152344 C 0.4375 -132.9375 2.386719 -133.828125 4.859375 -133.828125 L 78.164062 -133.828125 C 80.519531 -133.828125 82.394531 -132.902344 83.785156 -131.042969 C 84.746094 -129.761719 85.226562 -128.269531 85.226562 -126.5625 L 78.773438 -126.5625 L 85.210938 -127.058594 C 85.605469 -121.902344 86.136719 -116.746094 86.796875 -111.589844 C 87.449219 -106.484375 88.300781 -101.378906 89.347656 -96.269531 L 83.027344 -94.972656 L 89.316406 -96.425781 C 89.15625 -97.121094 88.722656 -97.726562 88.019531 -98.230469 C 87.5 -98.609375 87.050781 -98.796875 86.671875 -98.796875 C 86.285156 -98.796875 85.863281 -98.640625 85.40625 -98.328125 C 84.941406 -98.007812 84.636719 -97.664062 84.492188 -97.289062 L 90.519531 -94.972656 L 84.441406 -97.144531 C 85.015625 -98.753906 85.609375 -101.035156 86.222656 -103.984375 C 86.878906 -107.121094 87.464844 -110.355469 87.988281 -113.691406 C 88.535156 -117.183594 89.050781 -120.265625 89.53125 -122.945312 C 90.082031 -126.007812 90.574219 -128.082031 91.003906 -129.164062 L 97 -126.765625 L 90.542969 -126.765625 C 90.542969 -128.75 91.226562 -130.425781 92.585938 -131.785156 C 93.949219 -133.148438 95.621094 -133.828125 97.605469 -133.828125 Z M 97.605469 -120.917969 C 99.1875 -120.917969 100.554688 -121.5 101.714844 -122.65625 C 102.875 -123.816406 103.453125 -125.1875 103.453125 -126.765625 L 103.453125 -125.523438 L 102.992188 -124.371094 C 102.882812 -124.101562 102.632812 -122.867188 102.238281 -120.664062 C 101.773438 -118.078125 101.277344 -115.089844 100.742188 -111.691406 C 100.1875 -108.144531 99.558594 -104.695312 98.863281 -101.351562 C 98.128906 -97.820312 97.371094 -94.972656 96.597656 -92.800781 L 96.570312 -92.730469 L 96.542969 -92.65625 C 95.726562 -90.527344 94.441406 -88.867188 92.695312 -87.671875 C 90.957031 -86.480469 88.949219 -85.886719 86.671875 -85.886719 C 84.265625 -85.886719 82.199219 -86.511719 80.460938 -87.765625 C 78.542969 -89.152344 77.300781 -91.070312 76.738281 -93.523438 L 76.71875 -93.597656 L 76.703125 -93.675781 C 75.589844 -99.097656 74.6875 -104.523438 73.992188 -109.949219 C 73.300781 -115.320312 72.75 -120.695312 72.335938 -126.070312 L 72.320312 -126.316406 L 72.320312 -126.5625 C 72.320312 -125.398438 72.699219 -124.3125 73.457031 -123.296875 C 74.648438 -121.710938 76.21875 -120.917969 78.164062 -120.917969 L 4.859375 -120.917969 C 5.3125 -120.917969 5.789062 -120.996094 6.277344 -121.148438 C 7.398438 -121.5 8.335938 -122.144531 9.089844 -123.089844 C 9.964844 -124.183594 10.402344 -125.421875 10.402344 -126.804688 C 10.402344 -127.507812 10.292969 -128.132812 10.074219 -128.679688 C 10.699219 -127.058594 11.824219 -124.488281 13.453125 -120.972656 C 15.121094 -117.363281 16.996094 -113.414062 19.074219 -109.128906 C 21.132812 -104.875 23.089844 -100.992188 24.945312 -97.484375 C 26.792969 -93.984375 28.140625 -91.503906 28.992188 -90.042969 C 31.546875 -85.878906 34.066406 -81.8125 36.550781 -77.847656 C 39.019531 -73.917969 41.585938 -69.953125 44.25 -65.953125 L 38.878906 -62.371094 L 43.976562 -66.332031 C 45.214844 -64.738281 46.683594 -62.136719 48.371094 -58.527344 C 50.066406 -54.902344 51.542969 -50.109375 52.792969 -44.15625 C 54.03125 -38.25 54.648438 -31.160156 54.648438 -22.882812 C 54.648438 -19.863281 54.617188 -16.90625 54.546875 -14.023438 C 54.480469 -11.238281 54.449219 -8.453125 54.449219 -5.671875 L 54.449219 -3.238281 C 54.449219 -2.074219 54.351562 -0.910156 54.15625 0.25 L 47.789062 -0.808594 L 54.246094 -0.808594 C 54.246094 -2.324219 53.683594 -3.640625 52.558594 -4.765625 C 51.433594 -5.890625 50.113281 -6.453125 48.601562 -6.453125 L 126.160156 -6.453125 C 124.648438 -6.453125 123.328125 -5.890625 122.203125 -4.765625 C 121.078125 -3.640625 120.515625 -2.324219 120.515625 -0.808594 L 126.96875 -0.808594 L 120.546875 -0.167969 C 120.386719 -1.777344 120.339844 -4.324219 120.414062 -7.8125 L 120.617188 -18.835938 C 120.683594 -23.027344 120.824219 -27.152344 121.027344 -31.210938 C 121.234375 -35.230469 121.4375 -38.742188 121.644531 -41.75 C 121.875 -45.171875 122.191406 -47.574219 122.585938 -48.957031 L 128.792969 -47.183594 L 122.507812 -48.660156 C 123.105469 -51.199219 123.886719 -53.800781 124.847656 -56.464844 C 125.847656 -59.230469 127.039062 -61.847656 128.429688 -64.320312 L 134.058594 -61.15625 L 128.285156 -64.042969 C 128.859375 -65.191406 130.339844 -67.371094 132.726562 -70.578125 C 134.851562 -73.433594 137.417969 -77 140.421875 -81.269531 C 143.378906 -85.476562 146.300781 -89.945312 149.191406 -94.675781 C 151.800781 -98.980469 154.347656 -103.621094 156.835938 -108.59375 C 159.359375 -113.640625 161.480469 -118.082031 163.199219 -121.914062 C 164.992188 -125.914062 166.109375 -128.355469 166.554688 -129.25 L 172.328125 -126.363281 L 166.335938 -128.757812 C 166.097656 -128.15625 165.976562 -127.507812 165.976562 -126.804688 C 165.976562 -125.421875 166.414062 -124.183594 167.289062 -123.089844 C 168.042969 -122.144531 168.980469 -121.5 170.101562 -121.148438 C 170.59375 -120.996094 171.066406 -120.917969 171.519531 -120.917969 Z M 97.605469 -120.917969 "/></g></g></g><g fill="#000000" fill-opacity="1"><g transform="translate(3.94989, 162.454576)"><g><path d="M 97.609375 -127.375 L 171.515625 -127.375 C 172.328125 -127.375 172.597656 -127.035156 172.328125 -126.359375 C 171.921875 -125.546875 170.835938 -123.179688 169.078125 -119.265625 C 167.328125 -115.359375 165.171875 -110.835938 162.609375 -105.703125 C 160.046875 -100.578125 157.410156 -95.785156 154.703125 -91.328125 C 151.734375 -86.460938 148.726562 -81.867188 145.6875 -77.546875 C 142.65625 -73.234375 140.054688 -69.625 137.890625 -66.71875 C 135.734375 -63.820312 134.457031 -61.96875 134.0625 -61.15625 C 132.84375 -59 131.789062 -56.703125 130.90625 -54.265625 C 130.03125 -51.835938 129.328125 -49.476562 128.796875 -47.1875 C 128.523438 -46.238281 128.285156 -44.28125 128.078125 -41.3125 C 127.878906 -38.34375 127.675781 -34.863281 127.46875 -30.875 C 127.269531 -26.894531 127.132812 -22.847656 127.0625 -18.734375 C 127 -14.617188 126.929688 -10.9375 126.859375 -7.6875 C 126.796875 -4.445312 126.832031 -2.15625 126.96875 -0.8125 C 126.96875 -0.269531 126.695312 0 126.15625 0 L 48.59375 0 C 48.0625 0 47.796875 -0.269531 47.796875 -0.8125 C 47.929688 -1.625 48 -2.429688 48 -3.234375 C 48 -4.046875 48 -4.859375 48 -5.671875 C 48 -8.503906 48.03125 -11.335938 48.09375 -14.171875 C 48.15625 -17.003906 48.1875 -19.90625 48.1875 -22.875 C 48.1875 -30.707031 47.613281 -37.359375 46.46875 -42.828125 C 45.320312 -48.296875 44.003906 -52.613281 42.515625 -55.78125 C 41.035156 -58.957031 39.820312 -61.15625 38.875 -62.375 C 36.175781 -66.414062 33.578125 -70.425781 31.078125 -74.40625 C 28.585938 -78.394531 26.054688 -82.484375 23.484375 -86.671875 C 22.546875 -88.285156 21.128906 -90.878906 19.234375 -94.453125 C 17.347656 -98.035156 15.359375 -101.988281 13.265625 -106.3125 C 11.171875 -110.632812 9.28125 -114.617188 7.59375 -118.265625 C 5.90625 -121.910156 4.722656 -124.609375 4.046875 -126.359375 C 3.773438 -127.035156 4.046875 -127.375 4.859375 -127.375 L 78.171875 -127.375 C 78.566406 -127.375 78.765625 -127.101562 78.765625 -126.5625 C 79.171875 -121.300781 79.710938 -116.035156 80.390625 -110.765625 C 81.066406 -105.503906 81.945312 -100.238281 83.03125 -94.96875 C 83.425781 -93.21875 84.640625 -92.34375 86.671875 -92.34375 C 88.554688 -92.34375 89.835938 -93.21875 90.515625 -94.96875 C 91.191406 -96.863281 91.867188 -99.429688 92.546875 -102.671875 C 93.222656 -105.910156 93.828125 -109.25 94.359375 -112.6875 C 94.898438 -116.132812 95.40625 -119.171875 95.875 -121.796875 C 96.351562 -124.429688 96.726562 -126.085938 97 -126.765625 C 97 -127.171875 97.203125 -127.375 97.609375 -127.375 Z M 97.609375 -127.375 "/></g></g></g></g></g></svg>